<svg xmlns="http://www.w3.org/2000/svg" data-name="Layer 1" viewBox="0 0 500 500"><defs><radialGradient id="a" cx="251.28" cy="751" r="1.79" gradientTransform="matrix(205.75 205.62 436.07 -436.35 -378806.31 276412.53)" gradientUnits="userSpaceOnUse"><stop offset="0" stop-color="#76ecf8"/><stop offset=".32" stop-color="#a6aeec"/><stop offset=".73" stop-color="#ecbee1"/></radialGradient><radialGradient id="b" cx="252.43" cy="751.34" r="1.78" gradientTransform="matrix(15.06 149.91 286.78 -28.8 -218747.08 -15483.96)" gradientUnits="userSpaceOnUse"><stop offset="0" stop-color="#fcf5ee"/><stop offset=".72" stop-color="#ecbee1" stop-opacity="0"/></radialGradient></defs><path d="M249.67 499.56c0-138.08 111.93-250 250-250s250 111.92 250 250-111.93 250-250 250-250-111.93-250-250Z" style="fill:#131313" transform="translate(-249.67 -249.56)"/><path d="M499.67 249.56c-138.07 0-250 111.92-250 250s111.93 250 250 250 250-111.93 250-250-111.93-250-250-250Zm20.48 177.55 9.71-11.34 33.7-39.29H594l-64.46 75.06S522.4 443 520 440.2a10 10 0 0 1 .2-13.09Zm-81-50.63s54 64.61 73.51 84.65c3.11 3.12 2.56 7.23-.28 10.55-10.38 12.21-10.66 12.41-10.66 12.41l-92.86-107.61Zm43.89 193.91-9.71 11.34L439.65 621h-30.48l64.46-75s7.18 8.5 9.63 11.34a10 10 0 0 1-.2 13.08Zm1.23-66c-26.23 30.39-100 116.61-100 116.61h-32.76l100.42-116.27a9.81 9.81 0 0 0 0-12.89l-99.67-115.36h31.51L484 492.79c2.55 3.43 3 8.41.28 11.62ZM563.58 621l-68.06-79.36-3.39-4.3a10 10 0 0 1 .2-13.11L619.17 376.5h31.43L523 522.32a10 10 0 0 0-.2 13.09L596.4 621h-32.82Zm57.94 0s-54.92-64.13-73.25-85.52a10 10 0 0 1-2.07-8.8 15.37 15.37 0 0 1 2.93-4.79l8.5-9.37L651.35 621Z" style="fill:url(#a)" transform="translate(-249.67 -249.56)"/><path d="M499.67 249.56c-138.07 0-250 111.92-250 250s111.93 250 250 250 250-111.93 250-250-111.93-250-250-250Zm20.48 177.55 9.71-11.34 33.7-39.29H594l-64.46 75.06S522.4 443 520 440.2a10 10 0 0 1 .2-13.09Zm-81-50.63s54 64.61 73.51 84.65c3.11 3.12 2.56 7.23-.28 10.55-10.38 12.21-10.66 12.41-10.66 12.41l-92.86-107.61Zm43.89 193.91-9.71 11.34L439.65 621h-30.48l64.46-75s7.18 8.5 9.63 11.34a10 10 0 0 1-.2 13.08Zm1.23-66c-26.23 30.39-100 116.61-100 116.61h-32.76l100.42-116.27a9.81 9.81 0 0 0 0-12.89l-99.67-115.36h31.51L484 492.79c2.55 3.43 3 8.41.28 11.62ZM563.58 621l-68.06-79.36-3.39-4.3a10 10 0 0 1 .2-13.11L619.17 376.5h31.43L523 522.32a10 10 0 0 0-.2 13.09L596.4 621h-32.82Zm57.94 0s-54.92-64.13-73.25-85.52a10 10 0 0 1-2.07-8.8 15.37 15.37 0 0 1 2.93-4.79l8.5-9.37L651.35 621Z" style="fill:url(#b)" transform="translate(-249.67 -249.56)"/></svg>